<svg width="230" height="105" viewBox="0 0 230 105" fill="none" xmlns="http://www.w3.org/2000/svg">
<path fill-rule="evenodd" clip-rule="evenodd" d="M48.9815 96.8355H145.88C146.428 96.8355 146.962 96.7763 147.477 96.664C147.991 96.7763 148.526 96.8355 149.074 96.8355H204.444C208.561 96.8355 211.898 93.4984 211.898 89.3818C211.898 85.2652 208.561 81.9281 204.444 81.9281H198.056C193.939 81.9281 190.602 78.591 190.602 74.4744C190.602 70.3578 193.939 67.0207 198.056 67.0207H218.287C222.404 67.0207 225.741 63.6836 225.741 59.567C225.741 55.4504 222.404 52.1133 218.287 52.1133H194.861C198.978 52.1133 202.315 48.7762 202.315 44.6596C202.315 40.543 198.978 37.2059 194.861 37.2059H126.713C130.83 37.2059 134.167 33.8687 134.167 29.7522C134.167 25.6356 130.83 22.2985 126.713 22.2985H66.0185C61.902 22.2985 58.5648 25.6356 58.5648 29.7522C58.5648 33.8687 61.902 37.2059 66.0185 37.2059H23.4259C19.3094 37.2059 15.9722 40.543 15.9722 44.6596C15.9722 48.7762 19.3094 52.1133 23.4259 52.1133H50.0463C54.1629 52.1133 57.5 55.4504 57.5 59.567C57.5 63.6836 54.1629 67.0207 50.0463 67.0207H7.4537C3.33714 67.0207 0 70.3578 0 74.4744C0 78.591 3.33714 81.9281 7.4537 81.9281H48.9815C44.8649 81.9281 41.5278 85.2652 41.5278 89.3818C41.5278 93.4984 44.8649 96.8355 48.9815 96.8355ZM222.546 96.8355C226.663 96.8355 230 93.4984 230 89.3818C230 85.2652 226.663 81.9281 222.546 81.9281C218.43 81.9281 215.093 85.2652 215.093 89.3818C215.093 93.4984 218.43 96.8355 222.546 96.8355Z" fill="#F4F2FB"/>
<path fill-rule="evenodd" clip-rule="evenodd" d="M79.8611 103.224C66.9233 103.224 56.4352 92.9746 56.4352 80.3309C56.4352 67.6871 66.9233 57.4374 79.8611 57.4374C80.4113 57.4374 80.957 57.4559 81.4977 57.4924C81.122 55.4012 80.9259 53.2478 80.9259 51.0485C80.9259 31.0537 97.1349 14.8448 117.13 14.8448C133.092 14.8448 146.642 25.1756 151.458 39.516C152.599 39.3967 153.757 39.3355 154.931 39.3355C172.867 39.3355 187.407 53.6375 187.407 71.28C187.407 88.0408 174.284 101.869 157.593 103.201V103.224H97.4389H79.8611ZM92.6346 103.224H85.2186H92.6346Z" fill="white"/>
<path d="M92.6346 103.224H85.2186M79.8611 103.224C66.9233 103.224 56.4352 92.9746 56.4352 80.3309C56.4352 67.6871 66.9233 57.4374 79.8611 57.4374C80.4113 57.4374 80.957 57.4559 81.4977 57.4924C81.122 55.4012 80.9259 53.2478 80.9259 51.0485C80.9259 31.0537 97.1349 14.8448 117.13 14.8448C133.092 14.8448 146.642 25.1756 151.458 39.516C152.599 39.3967 153.757 39.3355 154.931 39.3355C172.867 39.3355 187.407 53.6375 187.407 71.28C187.407 88.0408 174.284 101.869 157.593 103.201V103.224H97.4389H79.8611Z" stroke="#4A31A5" stroke-width="2.5" stroke-linecap="round"/>
<path fill-rule="evenodd" clip-rule="evenodd" d="M106.069 22.6633C106.069 56.975 136.97 85.2482 176.759 89.0654C171.773 95.1969 164.073 99.3565 155.3 100.01V100.03H83.8468C75.1774 100.03 60.6944 96.3773 60.6944 80.3824C60.6944 64.3874 71.954 60.7348 83.8468 60.7348C84.3525 60.7348 84.8542 60.7507 85.3512 60.782C85.0058 58.9873 84.9452 57.1375 84.8256 55.2517C84.0179 42.5131 89.5753 26.4587 106.088 21.2337C106.075 21.71 106.069 22.1861 106.069 22.6633ZM117.253 76.3463C114.018 76.3463 111.395 78.9383 111.395 82.1356C111.395 85.333 114.018 87.925 117.253 87.925C120.489 87.925 123.112 85.333 123.112 82.1356C123.112 78.9383 120.489 76.3463 117.253 76.3463Z" fill="#F4F2FB"/>
<path d="M117.662 88.317C120.896 88.317 123.519 85.695 123.519 82.4605C123.519 79.2261 120.896 76.604 117.662 76.604C114.428 76.604 111.806 79.2261 111.806 82.4605C111.806 85.695 114.428 88.317 117.662 88.317Z" stroke="#4A31A5" stroke-width="2.5"/>
<path d="M101.157 70.2151L108.611 64.3659L101.157 58.7977" stroke="#4A31A5" stroke-width="2.5" stroke-linecap="round" stroke-linejoin="round"/>
<path d="M134.167 70.2151L126.713 64.3659L134.167 58.7977" stroke="#4A31A5" stroke-width="2.5" stroke-linecap="round" stroke-linejoin="round"/>
<path d="M127.779 25.4929C134.709 27.3271 140.182 32.7473 142.09 39.6477" stroke="#CABEFF" stroke-width="2.5" stroke-linecap="round"/>
<path d="M150.139 7.39107C151.903 7.39107 153.333 5.96087 153.333 4.19662C153.333 2.43238 151.903 1.00218 150.139 1.00218C148.375 1.00218 146.944 2.43238 146.944 4.19662C146.944 5.96087 148.375 7.39107 150.139 7.39107Z" stroke="#CABEFF" stroke-width="2"/>
<path d="M183.148 24.4281C184.912 24.4281 186.343 22.9979 186.343 21.2337C186.343 19.4694 184.912 18.0392 183.148 18.0392C181.384 18.0392 179.954 19.4694 179.954 21.2337C179.954 22.9979 181.384 24.4281 183.148 24.4281Z" fill="#CABEFF"/>
<path d="M158.399 15.6517L167.299 24.5517M167.434 15.6517L158.534 24.5517L167.434 15.6517Z" stroke="#CABEFF" stroke-width="2.5" stroke-linecap="round" stroke-linejoin="round"/>
<path d="M57.9306 34.6456L64.3195 41.0345M64.3195 34.6456L57.9306 41.0345L64.3195 34.6456Z" stroke="#CABEFF" stroke-width="2.5" stroke-linecap="round" stroke-linejoin="round"/>
<path d="M72.4074 27.6225C74.1717 27.6225 75.6019 26.1923 75.6019 24.4281C75.6019 22.6639 74.1717 21.2337 72.4074 21.2337C70.6432 21.2337 69.213 22.6639 69.213 24.4281C69.213 26.1923 70.6432 27.6225 72.4074 27.6225Z" fill="#CABEFF"/>
</svg>
