<svg width="29" height="29" viewBox="0 0 29 29" fill="none" xmlns="http://www.w3.org/2000/svg">
<circle cx="14.5" cy="14.5" r="14.5" fill="#EFA83C"/>
<path d="M8.97645 18.4263L7.56864 12.9033C7.45807 12.4696 7.88664 12.0937 8.30226 12.26L10.9979 13.3382C11.237 13.4339 11.5104 13.3499 11.6546 13.1365L14.3748 9.11063C14.5918 8.78944 15.0648 8.78944 15.2818 9.11063L17.9989 13.132C18.1445 13.3474 18.4215 13.4307 18.6617 13.3313L21.2304 12.2684C21.6425 12.0979 22.0746 12.4654 21.9725 12.8995L20.6744 18.4164C20.6162 18.6637 20.3956 18.8384 20.1416 18.8384H9.50681C9.2566 18.8384 9.03825 18.6687 8.97645 18.4263Z" fill="#9A630F"/>
</svg>
