<svg width="14" height="16" viewBox="0 0 14 16" fill="none" xmlns="http://www.w3.org/2000/svg">
<path d="M1.45801 0.711864C1.45801 0.318712 1.77672 0 2.16987 0C2.56302 0 2.88174 0.318713 2.88174 0.711864V14.5085H1.45801V0.711864Z" fill="#EFA83C"/>
<path d="M0 15.6699C0 15.0284 0.520073 14.5083 1.16162 14.5083H3.17737C3.81891 14.5083 4.33898 15.0284 4.33898 15.6699V15.9998H0V15.6699Z" fill="#EFA83C"/>
<path d="M3.59277 1.31348C3.59277 1.03733 3.81663 0.813477 4.09277 0.813477H12.5981C12.9736 0.813477 13.2151 1.21204 13.0413 1.54493L11.2783 4.92101C11.2025 5.06602 11.2025 5.2389 11.2783 5.38391L13.0413 8.75999C13.2151 9.09288 12.9736 9.49144 12.5981 9.49144H4.09277C3.81663 9.49144 3.59277 9.26758 3.59277 8.99144V1.31348Z" fill="#EFA83C"/>
</svg>
