<svg width="19" height="17" viewBox="0 0 19 17" fill="none" xmlns="http://www.w3.org/2000/svg">
<path d="M6.4752 11.4387L3.12076 8.08429L9.93241 1.27263L13.2869 4.62707L6.4752 11.4387Z" fill="#333333" stroke="#333333" stroke-width="0.096681"/>
<path d="M2.35102 7.38847L7.17263 12.2101" stroke="#333333" stroke-width="0.96681" stroke-linecap="round" stroke-linejoin="round"/>
<path d="M9.23482 0.504663L14.0564 5.32628" stroke="#333333" stroke-width="0.96681" stroke-linecap="round" stroke-linejoin="round"/>
<path d="M12.9051 12.4845L14.3325 11.0571C14.5099 10.8797 14.7975 10.8797 14.9749 11.0571L18.6648 14.747C18.8421 14.9244 18.8421 15.2119 18.6648 15.3893L17.2373 16.8167C17.06 16.9941 16.7724 16.9941 16.595 16.8167L12.9051 13.1269C12.7277 12.9495 12.7277 12.6619 12.9051 12.4845Z" fill="#333333" stroke="#333333" stroke-width="0.096681"/>
<path d="M11.3626 9.51315L13.5831 11.7337" stroke="#333333" stroke-width="0.96681" stroke-linecap="round" stroke-linejoin="round"/>
<path d="M1.61494 14.7469H4.90135C5.76473 14.7469 6.46583 15.448 6.46583 16.3113V16.9482H0.050467V16.3113C0.050467 15.448 0.751569 14.7469 1.61494 14.7469Z" fill="#333333" stroke="#333333" stroke-width="0.096681"/>
</svg>
